<?xml version="1.0" standalone="no"?>
<!DOCTYPE svg PUBLIC "-//W3C//DTD SVG 20010904//EN"
 "http://www.w3.org/TR/2001/REC-SVG-20010904/DTD/svg10.dtd">
<svg version="1.0" xmlns="http://www.w3.org/2000/svg"
 width="1028.000000pt" height="1028.000000pt" viewBox="0 0 1028.000000 1028.000000"
 preserveAspectRatio="xMidYMid meet">
<metadata>
Created by potrace 1.14, written by Peter Selinger 2001-2017
</metadata>
<g transform="translate(0.000000,1028.000000) scale(0.100000,-0.100000)"
fill="#000000" stroke="none">
<path d="M0 5140 l0 -5140 5140 0 5140 0 0 5140 0 5140 -5140 0 -5140 0 0
-5140z m5895 4527 c8 -19 23 -79 34 -133 38 -189 46 -315 46 -687 l0 -358 30
6 c639 131 1247 85 1690 -130 244 -118 482 -325 644 -559 64 -92 159 -283 200
-400 85 -241 129 -694 77 -793 -32 -64 -111 -80 -209 -43 -30 11 -177 94 -328
183 -151 90 -332 196 -404 237 -71 40 -179 102 -238 137 -311 183 -732 387
-1082 525 -206 82 -434 162 -441 156 -2 -2 -13 -85 -24 -184 -79 -691 -193
-1328 -400 -2229 -95 -413 -115 -493 -225 -880 -112 -393 -236 -789 -379
-1205 -147 -430 -255 -704 -424 -1077 -41 -91 -48 -113 -35 -117 31 -12 475
-5 629 10 937 91 1891 482 2677 1097 164 128 475 433 589 577 41 52 114 154
163 225 156 230 172 244 160 147 -8 -72 -28 -114 -125 -259 -393 -595 -995
-1104 -1785 -1509 -469 -240 -1014 -439 -1479 -538 -315 -68 -617 -109 -890
-122 l-146 -7 -81 -136 c-305 -506 -572 -807 -834 -939 -93 -46 -188 -72 -268
-72 -83 0 -107 15 -107 67 0 42 22 53 163 82 53 10 122 31 154 45 207 96 435
314 661 638 81 115 192 294 192 310 0 4 -24 8 -52 8 -136 0 -469 47 -643 91
-582 145 -1020 468 -1274 941 -97 180 -185 463 -216 698 -94 715 83 1507 510
2276 543 980 1348 1803 2208 2259 l99 52 -44 7 c-409 59 -941 13 -1373 -119
-438 -134 -796 -311 -1028 -510 -149 -127 -251 -286 -283 -437 -12 -55 -14
-101 -8 -189 9 -168 -13 -219 -97 -219 -82 0 -146 78 -204 251 -32 97 -38 127
-38 204 -1 157 40 270 145 401 218 271 691 482 1403 628 493 101 968 127 1450
79 l219 -21 141 58 c260 108 499 193 650 231 l150 37 8 44 c4 23 5 241 1 483
-10 720 -10 680 5 698 22 28 51 21 66 -16z"/>
<path d="M6077 8310 c-65 -4 -120 -10 -122 -12 -5 -5 -23 -160 -29 -254 l-5
-80 97 -23 c346 -81 656 -175 1012 -306 331 -122 584 -231 907 -394 275 -137
321 -152 357 -115 51 50 22 213 -61 349 -142 233 -383 433 -688 572 -287 132
-566 211 -885 253 -114 15 -436 20 -583 10z"/>
<path d="M5675 8265 c-283 -59 -595 -152 -559 -167 20 -7 324 -56 524 -83 63
-9 123 -18 132 -21 22 -7 25 9 32 169 4 97 3 127 -7 126 -6 -1 -61 -11 -122
-24z"/>
<path d="M4799 7977 c-539 -276 -1031 -694 -1404 -1192 -663 -884 -980 -1793
-952 -2730 11 -372 71 -634 206 -902 90 -180 172 -292 330 -451 304 -305 662
-478 1146 -552 199 -30 177 -39 241 97 169 359 358 842 504 1288 122 374 123
378 211 690 200 716 418 1668 518 2270 91 545 193 1338 175 1355 -15 13 -529
132 -709 164 -49 9 -102 19 -116 22 -18 3 -60 -13 -150 -59z"/>
</g>
</svg>
